<svg xmlns="http://www.w3.org/2000/svg" version="1.1" xmlns:xlink="http://www.w3.org/1999/xlink" xmlns:svgjs="http://svgjs.dev/svgjs" width="1000" height="1000" viewBox="0 0 1000 1000"><g transform="matrix(1,0,0,1,-0.14221556886212738,-0.14221556886229791)"><svg viewBox="0 0 334 334" data-background-color="#ffffff" preserveAspectRatio="xMidYMid meet" height="1000" width="1000" xmlns="http://www.w3.org/2000/svg" xmlns:xlink="http://www.w3.org/1999/xlink"><g id="tight-bounds" transform="matrix(1,0,0,1,0.04749999999998522,0.04750000000001364)"><svg viewBox="0 0 333.90454557049503 333.90454557049503" height="333.90454557049503" width="333.90454557049503"><g><svg></svg></g><g><svg viewBox="0 0 333.90454557049503 333.90454557049503" height="333.90454557049503" width="333.90454557049503"><g><path d="M0 166.952c0-92.205 74.747-166.952 166.952-166.952 92.205 0 166.952 74.747 166.953 166.952 0 92.205-74.747 166.952-166.953 166.953-92.205 0-166.952-74.747-166.952-166.953zM166.952 316.63c82.665 0 149.677-67.013 149.678-149.678 0-82.665-67.013-149.677-149.678-149.677-82.665 0-149.677 67.013-149.677 149.677 0 82.665 67.013 149.677 149.677 149.678z" data-fill-palette-color="tertiary" fill="#2257bf" stroke="transparent"></path><ellipse rx="160.27418187383762" ry="160.27418187383762" cx="166.95227278524752" cy="166.95227278524752" fill="#2257bf" stroke="transparent" stroke-width="0" fill-opacity="1" data-fill-palette-color="tertiary"></ellipse></g><g transform="matrix(1,0,0,1,91.83399833259803,71.17305217166896)"><svg viewBox="0 0 150.23654890529897 191.55844122715712" height="191.55844122715712" width="150.23654890529897"><g><svg viewBox="0 0 150.23654890529897 191.55844122715712" height="191.55844122715712" width="150.23654890529897"><g><svg viewBox="0 0 150.23654890529897 191.55844122715712" height="191.55844122715712" width="150.23654890529897"><g><svg viewBox="0 0 150.23654890529897 191.55844122715712" height="191.55844122715712" width="150.23654890529897"><g id="textblocktransform"><svg viewBox="0 0 150.23654890529897 191.55844122715712" height="191.55844122715712" width="150.23654890529897" id="textblock"><g><svg viewBox="0 0 150.23654890529897 191.55844122715712" height="191.55844122715712" width="150.23654890529897"><g transform="matrix(1,0,0,1,0,0)"><svg width="150.23654890529897" viewBox="3.1 -35 27.45 35" height="191.55844122715712" data-palette-color="#ffffff"><path d="M28.65-35Q29.6-34.45 30.08-33.48 30.55-32.5 30.55-31.35L30.55-31.35Q30.55-30.35 30.15-29.35 29.75-28.35 29.1-27.7L29.1-27.7Q28.35-27.75 26.85-27.75L26.85-27.75Q25.9-27.75 23.4-27.65L23.4-27.65 20.75-27.6Q21-29.05 19.55-20.85L19.55-20.85 18.55-15.15Q18.05-12.2 17.5-7.4L17.5-7.4Q17-3.3 16.63-1.65 16.25 0 15.45 0L15.45 0Q14.3 0 12.73-0.83 11.15-1.65 9.98-2.8 8.8-3.95 8.8-4.7L8.8-4.7Q8.75-5.85 10-11.5L10-11.5Q10.95-16.25 11.35-18.55L11.35-18.55Q11.35-18.45 12.15-22.7L12.15-22.7Q12.85-26.5 13-27.35L13-27.35 5.2-26.4Q4.25-26.9 3.68-27.88 3.1-28.85 3.1-30L3.1-30Q3.1-32 4.65-33.55L4.65-33.55Q7.5-33.95 11.78-34.08 16.05-34.2 16.85-34.25L16.85-34.25Q22.1-34.4 24.53-34.52 26.95-34.65 28.65-35L28.65-35Z" opacity="1" transform="matrix(1,0,0,1,0,0)" fill="#ffffff" class="undefined-text-0" data-fill-palette-color="quaternary" id="text-0"></path></svg></g></svg></g></svg></g></svg></g><g></g></svg></g></svg></g></svg></g></svg></g><defs></defs></svg><rect width="333.90454557049503" height="333.90454557049503" fill="none" stroke="none" visibility="hidden"></rect></g></svg></g></svg>